<svg xmlns="http://www.w3.org/2000/svg" viewBox="0 0 683.84 84.72"><defs><style>.a{fill:#fff;}</style></defs><title>logo</title><path class="a" d="M46.94,40.56q0-6.12-5.18-6.12A8.79,8.79,0,0,0,35,37.68a22.84,22.84,0,0,0-4.46,7.8L20.74,84H0L20.88,2.4,42.19,0,34.42,30.24a21.94,21.94,0,0,1,9.07-5.52,30.58,30.58,0,0,1,7.78-1.2A19.48,19.48,0,0,1,62.71,26.7q4.54,3.18,4.54,10.38a33.58,33.58,0,0,1-1.08,8q-1.08,4.38-2.38,8.64t-2.38,8A23.8,23.8,0,0,0,60.34,68a5.31,5.31,0,0,0,1.22,3.66q1.22,1.38,4.54,1.38a10.22,10.22,0,0,0,4.1-.78,10,10,0,0,0,3.17-2.16,17.31,17.31,0,0,0,2.52-3.3q1.15-1.92,2.3-4.32h6a48.87,48.87,0,0,1-6.48,11.82A29,29,0,0,1,70.7,81a21.55,21.55,0,0,1-7,3,30.22,30.22,0,0,1-6.26.72,24.29,24.29,0,0,1-8-1.14,14.43,14.43,0,0,1-5.26-3.06,11,11,0,0,1-2.88-4.38,14.93,14.93,0,0,1-.86-5,30.84,30.84,0,0,1,1-7.14q1-4.14,2.23-8.34t2.23-8.22A29.12,29.12,0,0,0,46.94,40.56Z"/><path class="a" d="M147.45,24,136.94,64.8a14.13,14.13,0,0,0-.58,3.84q0,2.52,1.44,3.48a8.16,8.16,0,0,0,4.46,1,9.63,9.63,0,0,0,7.13-3,19.91,19.91,0,0,0,4.54-7.56h6a40.41,40.41,0,0,1-6.84,11.58,31,31,0,0,1-7.78,6.48,23.36,23.36,0,0,1-7.7,2.82A42.41,42.41,0,0,1,131,84a16,16,0,0,1-9.58-2.64,11.46,11.46,0,0,1-4.54-7.8,36.09,36.09,0,0,1-3.74,4.08,26.43,26.43,0,0,1-4.82,3.6,27,27,0,0,1-5.83,2.52,24.29,24.29,0,0,1-7.06,1,24.6,24.6,0,0,1-7.13-1,17.19,17.19,0,0,1-6.12-3.3,15.65,15.65,0,0,1-4.32-5.94,22.81,22.81,0,0,1-1.58-9.06,41.7,41.7,0,0,1,1-8.76,51,51,0,0,1,8.06-18.36,35.79,35.79,0,0,1,16.49-12.9,31.46,31.46,0,0,1,11.45-2q1.73,0,3.67.18a12.94,12.94,0,0,1,3.6.84,8.22,8.22,0,0,1,2.88,1.92,6.58,6.58,0,0,1,1.66,3.3L126.57,24Zm-29.52,6.84a11.88,11.88,0,0,0-8.35,3.54A31.2,31.2,0,0,0,103.25,43a51.69,51.69,0,0,0-4,10.8,41.21,41.21,0,0,0-1.44,9.9,14.11,14.11,0,0,0,.79,5.34,7.17,7.17,0,0,0,1.87,2.76,4.63,4.63,0,0,0,2.3,1.08,15.54,15.54,0,0,0,2.23.18,9.86,9.86,0,0,0,3.38-.66,13.41,13.41,0,0,0,3.53-2,13.2,13.2,0,0,0,3-3.3,16.14,16.14,0,0,0,2-4.62l6.91-27.12a3.26,3.26,0,0,0-.36-1.26,6,6,0,0,0-1-1.5,5.76,5.76,0,0,0-1.73-1.26A6.3,6.3,0,0,0,117.93,30.84Z"/><path class="a" d="M184.46,24l-2,7.56a54.88,54.88,0,0,1,8.71-5.76A18.88,18.88,0,0,1,200,23.4q4.89,0,7.42,2.76a9,9,0,0,1,2.52,6.24,8.08,8.08,0,0,1-.65,3.12,8.43,8.43,0,0,1-1.94,2.82,9.82,9.82,0,0,1-3.24,2,12.1,12.1,0,0,1-4.54.78q-3,0-4.1-1.2A6.94,6.94,0,0,1,194,37.38q-.43-1.38-.79-2.58a1.77,1.77,0,0,0-1.94-1.2A10.76,10.76,0,0,0,186,34.92a43.39,43.39,0,0,0-5.33,3.48L169.2,84H148.46l15.26-60Z"/><path class="a" d="M256.46,21.6a9.29,9.29,0,0,1,4.32.9,8.15,8.15,0,0,1,2.81,2.34,8.69,8.69,0,0,1,1.51,3.36,17.43,17.43,0,0,1,.43,3.84,61.81,61.81,0,0,1-1,10.56,71.86,71.86,0,0,1-3.1,11.64A61.52,61.52,0,0,1,256,65.58a45.89,45.89,0,0,1-7.85,9.72,36.36,36.36,0,0,1-10.44,6.84,32.73,32.73,0,0,1-13.25,2.58q-8.21,0-13-3.48t-4.75-10.68q0-1,.14-2.52a20.46,20.46,0,0,1,.58-3.24L217.87,24H238.6L228.23,64.8a18.31,18.31,0,0,0-.72,4.32A3.75,3.75,0,0,0,228.67,72a5.37,5.37,0,0,0,3.74,1.08,12.39,12.39,0,0,0,6.7-2,25.93,25.93,0,0,0,6-5.4,42.83,42.83,0,0,0,5-7.62A66.54,66.54,0,0,0,254,49.26a67,67,0,0,0,2.45-8.7,37.91,37.91,0,0,0,.86-7.56q-.29.6-2,.9a16.55,16.55,0,0,1-2.59.3,4.3,4.3,0,0,1-3.89-2,7.56,7.56,0,0,1-1.3-4.08,5.86,5.86,0,0,1,2.16-4.62Q251.85,21.6,256.46,21.6Z"/><path class="a" d="M287.27,64.56q0,6.12,2.59,8.1t7.78,2a29,29,0,0,0,7.78-1,31.47,31.47,0,0,0,6.48-2.58,36.39,36.39,0,0,0,5.76-3.84q2.74-2.22,5.47-4.74H328a70.19,70.19,0,0,1-6.91,8.16,49.57,49.57,0,0,1-8.78,7.08,47,47,0,0,1-10.8,5,42.24,42.24,0,0,1-13.1,1.92q-10.29,0-16.45-4.44t-6.16-14.64a41.92,41.92,0,0,1,.86-7.92,54.26,54.26,0,0,1,2.66-9.12,46.12,46.12,0,0,1,4.82-9.18,38.41,38.41,0,0,1,7.34-8.1,34.56,34.56,0,0,1,10.08-5.76,37.15,37.15,0,0,1,13.1-2.16,27,27,0,0,1,7.85,1,13,13,0,0,1,4.9,2.58,8.3,8.3,0,0,1,2.45,3.66,14.18,14.18,0,0,1,.65,4.32,17.83,17.83,0,0,1-2.72,9.48,26.82,26.82,0,0,1-7.31,7.74A39,39,0,0,1,300,57.42a47.47,47.47,0,0,1-12.4,2.34c-.09.88-.17,1.72-.21,2.52S287.27,63.84,287.27,64.56Zm22.18-29.78a6.93,6.93,0,0,0-.79-3.58,3,3,0,0,0-2.81-1.31A8.3,8.3,0,0,0,300.52,32a26.18,26.18,0,0,0-4.9,5.55,43.84,43.84,0,0,0-4.1,7.7,64.52,64.52,0,0,0-3,8.71,23,23,0,0,0,8-1.91,24.34,24.34,0,0,0,6.7-4.3,19.91,19.91,0,0,0,4.54-6A15.81,15.81,0,0,0,309.45,34.78Z"/><path class="a" d="M384,62.52a71.91,71.91,0,0,1-11.3,9,103.05,103.05,0,0,1-10.73,6,21.94,21.94,0,0,1-5,3.36,38.28,38.28,0,0,1-5.76,2.22,36.1,36.1,0,0,1-6,1.26,49,49,0,0,1-5.76.36A28.76,28.76,0,0,1,330,83.34a20.8,20.8,0,0,1-6.55-3.54,13.56,13.56,0,0,1-5-10.44,11,11,0,0,1,2.3-7.08A12.91,12.91,0,0,1,326,58.2a137.81,137.81,0,0,0,10.22-17.82q4.17-8.82,7.49-17.7L365,20.28q.57,11.64,1.15,18.84t1,11.7q.43,4.5.72,7.32A57.6,57.6,0,0,1,368.2,64a16,16,0,0,1-.58,4.56,70.71,70.71,0,0,0,10.37-6Zm-47.81,0a5.81,5.81,0,0,1-1.73,4,6,6,0,0,1-4.61,1.86,8.24,8.24,0,0,1-2.23-.3A2.7,2.7,0,0,1,326,66.84q0,4.2,2,6.3t6.77,2.1a20.17,20.17,0,0,0,4.61-.54,10.48,10.48,0,0,0,4-1.86,9.8,9.8,0,0,0,2.81-3.48,11.72,11.72,0,0,0,1.08-5.28q0-2.28-.22-4.44t-.58-5.16q-.36-3-.86-7.44t-1.08-11.4A89.94,89.94,0,0,1,339.47,47q-3,5.52-6.55,11.28a6.69,6.69,0,0,1,2.38,1.62A3.67,3.67,0,0,1,336.23,62.52Z"/><path class="a" d="M398.73,64.8A14.85,14.85,0,0,0,398,69a4.48,4.48,0,0,0,1.08,3.12q1.08,1.2,4,1.2c.48,0,1.08,0,1.8-.06a9.06,9.06,0,0,0,1.94-.3,25.47,25.47,0,0,1-3.46,6.18,15.85,15.85,0,0,1-3.89,3.6,11.41,11.41,0,0,1-4,1.62,22.21,22.21,0,0,1-3.89.36q-7.63,0-11-3.9a14.22,14.22,0,0,1-3.38-9.66A24.6,24.6,0,0,1,378,64.8l9.22-36h-4.75l1.15-4.8h4.75l4.32-16.56L414,5q-.72,2.4-1.44,5.4-.72,2.52-1.58,6T409.09,24h8.64l-1.15,4.8h-8.64Z"/><path class="a" d="M490.45,40.56q0-6.12-5.18-6.12a8.8,8.8,0,0,0-6.77,3.24,22.86,22.86,0,0,0-4.46,7.8L464.24,84H443.51L464.39,2.4,485.7,0l-7.78,30.24A22,22,0,0,1,487,24.72a30.58,30.58,0,0,1,7.78-1.2,19.48,19.48,0,0,1,11.45,3.18q4.54,3.18,4.54,10.38a33.6,33.6,0,0,1-1.08,8q-1.08,4.38-2.38,8.64t-2.38,8a23.77,23.77,0,0,0-1.08,6.3,5.31,5.31,0,0,0,1.22,3.66q1.22,1.38,4.54,1.38a10.22,10.22,0,0,0,4.11-.78,10.05,10.05,0,0,0,3.17-2.16,17.29,17.29,0,0,0,2.52-3.3q1.15-1.92,2.3-4.32h6a48.87,48.87,0,0,1-6.48,11.82A29,29,0,0,1,514.21,81a21.56,21.56,0,0,1-7,3,30.22,30.22,0,0,1-6.26.72,24.29,24.29,0,0,1-8-1.14,14.43,14.43,0,0,1-5.26-3.06,11,11,0,0,1-2.88-4.38,14.94,14.94,0,0,1-.86-5A30.84,30.84,0,0,1,485,64q1-4.14,2.23-8.34t2.23-8.22A29.15,29.15,0,0,0,490.45,40.56Z"/><path class="a" d="M541.28,64.56q0,6.12,2.59,8.1t7.78,2a29,29,0,0,0,7.78-1,31.47,31.47,0,0,0,6.48-2.58,36.39,36.39,0,0,0,5.76-3.84q2.74-2.22,5.47-4.74H582a70.19,70.19,0,0,1-6.91,8.16,49.57,49.57,0,0,1-8.78,7.08,47,47,0,0,1-10.8,5,42.24,42.24,0,0,1-13.1,1.92q-10.29,0-16.45-4.44t-6.16-14.64a41.92,41.92,0,0,1,.86-7.92,54.26,54.26,0,0,1,2.66-9.12,46.12,46.12,0,0,1,4.82-9.18,38.41,38.41,0,0,1,7.34-8.1,34.56,34.56,0,0,1,10.08-5.76,37.15,37.15,0,0,1,13.1-2.16,27,27,0,0,1,7.85,1,13,13,0,0,1,4.9,2.58,8.3,8.3,0,0,1,2.45,3.66,14.18,14.18,0,0,1,.65,4.32,17.83,17.83,0,0,1-2.72,9.48,26.82,26.82,0,0,1-7.31,7.74A39,39,0,0,1,554,57.42a47.47,47.47,0,0,1-12.4,2.34c-.09.88-.17,1.72-.21,2.52S541.28,63.84,541.28,64.56Zm22.18-29.78a6.93,6.93,0,0,0-.79-3.58,3,3,0,0,0-2.81-1.31A8.3,8.3,0,0,0,554.53,32a26.18,26.18,0,0,0-4.9,5.55,43.84,43.84,0,0,0-4.1,7.7,64.52,64.52,0,0,0-3,8.71,23,23,0,0,0,8-1.91,24.34,24.34,0,0,0,6.7-4.3,19.91,19.91,0,0,0,4.54-6A15.81,15.81,0,0,0,563.46,34.78Z"/><path class="a" d="M607.52,24l-2,7.56a54.9,54.9,0,0,1,8.71-5.76,18.88,18.88,0,0,1,8.86-2.4q4.89,0,7.42,2.76A9,9,0,0,1,633,32.4a8.07,8.07,0,0,1-.65,3.12,8.39,8.39,0,0,1-1.94,2.82,9.8,9.8,0,0,1-3.24,2,12.1,12.1,0,0,1-4.54.78q-3,0-4.1-1.2A6.92,6.92,0,0,1,617,37.38c-.29-.92-.55-1.78-.79-2.58a1.77,1.77,0,0,0-1.94-1.2,10.76,10.76,0,0,0-5.18,1.32,43.26,43.26,0,0,0-5.33,3.48L592.26,84H571.52l15.26-60Z"/><path class="a" d="M650.86,59.76c-.09.64-.17,1.26-.21,1.86s-.07,1.22-.07,1.86a17.56,17.56,0,0,0,.36,3.54,8.49,8.49,0,0,0,1.36,3.18A7,7,0,0,0,655,72.48a10.12,10.12,0,0,0,4.44.84,23.12,23.12,0,0,0,8.81-1.92A38.32,38.32,0,0,0,676.35,67a24.15,24.15,0,0,1-3.53,8.58A19.12,19.12,0,0,1,667.14,81a22.67,22.67,0,0,1-7.34,2.88,41,41,0,0,1-8.35.84q-10.08,0-16.2-4.44t-6.12-14.64a41.92,41.92,0,0,1,.86-7.92,54.26,54.26,0,0,1,2.66-9.12,46.18,46.18,0,0,1,4.82-9.18,38.38,38.38,0,0,1,7.34-8.1,34.54,34.54,0,0,1,10.08-5.76A37.15,37.15,0,0,1,668,23.4a27,27,0,0,1,7.85,1,13,13,0,0,1,4.9,2.58,8.3,8.3,0,0,1,2.45,3.66,14.18,14.18,0,0,1,.65,4.32,17.73,17.73,0,0,1-2.72,9.54,27.11,27.11,0,0,1-7.31,7.68,39,39,0,0,1-10.54,5.28A47.47,47.47,0,0,1,650.86,59.76Zm21.89-25a6.93,6.93,0,0,0-.79-3.58,3,3,0,0,0-2.81-1.31,8.17,8.17,0,0,0-5.33,2.21,27.07,27.07,0,0,0-4.9,5.67,50,50,0,0,0-4.18,7.76,63.39,63.39,0,0,0-3,8.48,21.25,21.25,0,0,0,8-1.79,24.37,24.37,0,0,0,6.7-4.3,21,21,0,0,0,4.61-6A15.49,15.49,0,0,0,672.75,34.78Z"/></svg>